After a terrorist attack to an American housing compound in Riyadh, Saudi Arabia, where families and the spy Francis Manner are murdered, FBI agent Ronald Fleury blackmails the South Arabian consul to get five days of investigation in the location. He travels with agent Grant Sykes, Janet Mayes and Adam Leavitt to revenge their friend and try to find the responsible for the bombing. The agents find all sorts of difficulties in their investigation, but they are supported by Colonel Faris Al Ghazi that advises the team how to act in a hostile environment. 


Jamie Foxx 	... 	Ronald Fleury 
 	Chris Cooper 	... 	Grant Sykes 
 	Jennifer Garner 	... 	Janet Mayes 
 	Jason Bateman 	... 	Adam Leavitt 
 	Ashraf Barhom 	... 	Colonel Faris Al Ghazi 
 	Ali Suliman 	... 	Sergeant Haytham 
 	Jeremy Piven 	... 	Damon Schmidt 
 	Richard Jenkins 	... 	Robert Grace 
 	Tim McGraw 	... 	Aaron Jackson 
 	Kyle Chandler 	... 	Francis Manner 
 	Frances Fisher 	... 	Elaine Flowers 
 	Danny Huston 	... 	Gideon Young 
 	Kelly AuCoin 	... 	Ellis Leach 
 	Anna Deavere Smith 	... 	Maricella Canavesio 
 	Minka Kelly 	... 	Miss Ross

General
Complete name                    : The.Kingdom.2007.HDRip.XviD[HinDi-Eng]-[SnowDoN-IcTv].avi
Format                           : AVI
Format/Info                      : Audio Video Interleave
Format profile                   : OpenDML
File size                        : 2.67 GiB
Duration                         : 1h 50mn
Overall bit rate                 : 3 465 Kbps
Writing application              : AVI-Mux GUI 1.17.8, Aug 30 2008  12:36:58

Video
ID                               : 0
Format                           : MPEG-4 Visual
Format profile                   : Advanced Simple@L5
Format settings, BVOP            : Yes
Format settings, QPel            : No
Format settings, GMC             : No warppoints
Format settings, Matrix          : Default (H.263)
Codec ID                         : XVID
Codec ID/Hint                    : XviD
Duration                         : 1h 50mn
Bit rate                         : 2 894 Kbps
Width                            : 1 280 pixels
Height                           : 544 pixels
Display aspect ratio             : 2.35:1
Frame rate                       : 23.976 fps
Resolution                       : 8 bits
Colorimetry                      : 4:2:0
Scan type                        : Progressive
Bits/(Pixel*Frame)               : 0.173
Stream size                      : 2.23 GiB (84%)
Title                            : The.Kingdom.2007.HDRip.XviD[HinDi-Eng]-[SnowDoN-IcTv]
Writing library                  : XviD 1.2.0.dev47 (UTC 2006-11-01)

Audio #1
ID                               : 1
Format                           : MPEG Audio
Format version                   : Version 1
Format profile                   : Layer 3
Format_Settings_Mode             : Joint stereo
Format_Settings_ModeExtension    : MS Stereo
Codec ID                         : 55
Codec ID/Hint                    : MP3
Duration                         : 1h 50mn
Bit rate mode                    : Constant
Bit rate                         : 112 Kbps
Channel(s)                       : 2 channels
Sampling rate                    : 44.1 KHz
Stream size                      : 88.4 MiB (3%)
Alignment                        : Aligned on interleaves
Interleave, duration             : 26 ms (0.63 video frame)
Interleave, preload duration     : 182 ms
Title                            : The.Kingdom.2007.HDRip.XviD[HinDi-Eng]-[SnowDoN-IcTv].Hindi

Audio #2
ID                               : 2
Format                           : AC-3
Format/Info                      : Audio Coding 3
Codec ID                         : 2000
Duration                         : 1h 50mn
Bit rate mode                    : Constant
Bit rate                         : 448 Kbps
Channel(s)                       : 6 channels
Channel positions                : Front: L C R, Surround: L R, LFE
Sampling rate                    : 48.0 KHz
Stream size                      : 354 MiB (13%)
Alignment                        : Aligned on interleaves
Interleave, duration             : 64 ms (1.53 video frames)
Interleave, preload duration     : 192 ms
Title                            : The.Kingdom.2007.HDRip.XviD[HinDi-Eng]-[SnowDoN-IcTv].English

 
http://img64.imageshack.us/img64/2387/87390204.jpg
 
http://img573.imageshack.us/img573/2004/65957520.jpg
 
http://img84.imageshack.us/img84/2007/62312061.jpg
 
http://img97.imageshack.us/img97/616/26275688.jpg
 
http://img257.imageshack.us/img257/9461/61316844.jpg
 
http://img40.imageshack.us/img40/8121/32416051.jpg